<svg id="elAqd5utK311" xmlns="http://www.w3.org/2000/svg" xmlns:xlink="http://www.w3.org/1999/xlink" viewBox="0 0 300 300" shape-rendering="geometricPrecision" text-rendering="geometricPrecision"><path d="M272.35641,-18.10295v-11.90176h60.69896v234.46462h20.23299v134.48986h-390.37764v-134.48986v0-243.98602h66.64984v21.42316h242.79585ZM106.84382,154.17146l1.30508-4.17143h-.11547l3.87341-12.09789l3.50163,12.09789h-.00899l1.11789,4.17143h.09848l8.77219,30.3073.27402-.07931l1.53943,5.26008l1.98792-5.39422.4957.17266l10.54229-30.26652h.19041l1.43627-4.17143h-.1737l.98559-2.82959l6.58092,29.79941l2.1333-10.56721-.10247-.46402.18887.0347l1.42143-7.73586.80414-4.06601h.06577l.88116-4.17143h-.12194l4.57795-23.1478l4.90095,23.1478h-.15257l.7703,4.17143h.26547v.00001h4.94285v-.00001h83.6707v-4.17143h-84.5539l-5.21625-24.63699.0928-.02253-.76286-3.14225-1.43645-6.78452-.20036.04242-1.31499-5.4165-.24067.05843-.86951-3.36661-.90185-.16504-1.98216,10.83119-.06831-.01351-6.8653,34.71344-3.77689-18.16003-.06351.01321-1.14669-5.1674-.32748-.10079-4.08928,13.28738.08071.02484-12.20856,35.05029-13.78003-47.60905.05503-.1757-1.9024-5.85552-2.21239,7.0635-.04274.01237.01867.06449-.97388,3.1093.01864.00584L103.59066,150h-32.64385v4.17143l35.89701.00003Zm24.58197,35.18121l-.02067.05608.03416-.01-.01349-.04608Z" fill="#ffffff" stroke-width="0"/></svg>
